<?xml version="1.0" encoding="UTF-8"?>
<svg xmlns="http://www.w3.org/2000/svg" xmlns:xlink="http://www.w3.org/1999/xlink" width="30pt" height="30pt" viewBox="0 0 30 30" version="1.1">
<defs>
<radialGradient id="radial0" gradientUnits="userSpaceOnUse" cx="256" cy="256" fx="256" fy="256" r="224.5" >
<stop offset="0" style="stop-color:rgb(19.607843%,19.607843%,19.607843%);stop-opacity:1;"/>
<stop offset="0.8" style="stop-color:rgb(39.215686%,39.215686%,39.215686%);stop-opacity:1;"/>
<stop offset="1" style="stop-color:rgb(58.823529%,58.823529%,58.823529%);stop-opacity:1;"/>
</radialGradient>
<radialGradient id="radial1" gradientUnits="userSpaceOnUse" cx="256" cy="254" fx="256" fy="254" r="88.5" gradientTransform="matrix(1,0,0,0.977401,0,5.740113)">
<stop offset="0" style="stop-color:rgb(100%,0%,0%);stop-opacity:1;"/>
<stop offset="0.75" style="stop-color:rgb(100%,19.607843%,0%);stop-opacity:1;"/>
<stop offset="1" style="stop-color:rgb(100%,39.215686%,0%);stop-opacity:1;"/>
</radialGradient>
<filter id="alpha" filterUnits="objectBoundingBox" x="0%" y="0%" width="100%" height="100%">
  <feColorMatrix type="matrix" in="SourceGraphic" values="0 0 0 0 1 0 0 0 0 1 0 0 0 0 1 0 0 0 1 0"/>
</filter>
<mask id="mask0">
  <g filter="url(#alpha)">
<rect x="0" y="0" width="30" height="30" style="fill:rgb(0%,0%,0%);fill-opacity:0.501961;stroke:none;"/>
  </g>
</mask>
<linearGradient id="linear0" gradientUnits="userSpaceOnUse" x1="272" y1="732.36218" x2="272" y2="716.36218" gradientTransform="matrix(0.0585938,0,0,0.0585938,-2.109375,-36.114971)">
<stop offset="0" style="stop-color:rgb(0%,0%,0%);stop-opacity:1;"/>
<stop offset="1" style="stop-color:rgb(0%,0%,0%);stop-opacity:0;"/>
</linearGradient>
<clipPath id="clip1">
  <rect x="0" y="0" width="30" height="30"/>
</clipPath>
<g id="surface5" clip-path="url(#clip1)">
<path style=" stroke:none;fill-rule:nonzero;fill:url(#linear0);" d="M 13.828125 5.859375 C 13.945312 6.539062 13.738281 7.679688 14.296875 7.734375 C 14.847656 7.6875 14.640625 6.53125 14.765625 5.859375 "/>
</g>
<mask id="mask1">
  <g filter="url(#alpha)">
<rect x="0" y="0" width="30" height="30" style="fill:rgb(0%,0%,0%);fill-opacity:0.501961;stroke:none;"/>
  </g>
</mask>
<linearGradient id="linear1" gradientUnits="userSpaceOnUse" x1="272" y1="732.36218" x2="272" y2="716.36218" gradientTransform="matrix(0,0.0585938,-0.0585938,0,66.114973,-2.109375)">
<stop offset="0" style="stop-color:rgb(0%,0%,0%);stop-opacity:1;"/>
<stop offset="1" style="stop-color:rgb(0%,0%,0%);stop-opacity:0;"/>
</linearGradient>
<clipPath id="clip2">
  <rect x="0" y="0" width="30" height="30"/>
</clipPath>
<g id="surface8" clip-path="url(#clip2)">
<path style=" stroke:none;fill-rule:nonzero;fill:url(#linear1);" d="M 24.140625 13.828125 C 23.460938 13.945312 22.320312 13.738281 22.265625 14.296875 C 22.3125 14.847656 23.46875 14.640625 24.140625 14.765625 "/>
</g>
<mask id="mask2">
  <g filter="url(#alpha)">
<rect x="0" y="0" width="30" height="30" style="fill:rgb(0%,0%,0%);fill-opacity:0.501961;stroke:none;"/>
  </g>
</mask>
<linearGradient id="linear2" gradientUnits="userSpaceOnUse" x1="272" y1="732.36218" x2="272" y2="716.36218" gradientTransform="matrix(0,-0.0585938,0.0585938,0,-36.114971,30.703126)">
<stop offset="0" style="stop-color:rgb(0%,0%,0%);stop-opacity:1;"/>
<stop offset="1" style="stop-color:rgb(0%,0%,0%);stop-opacity:0;"/>
</linearGradient>
<clipPath id="clip3">
  <rect x="0" y="0" width="30" height="30"/>
</clipPath>
<g id="surface11" clip-path="url(#clip3)">
<path style=" stroke:none;fill-rule:nonzero;fill:url(#linear2);" d="M 5.859375 14.765625 C 6.539062 14.648438 7.679688 14.855469 7.734375 14.296875 C 7.6875 13.746094 6.53125 13.953125 5.859375 13.828125 "/>
</g>
<mask id="mask3">
  <g filter="url(#alpha)">
<rect x="0" y="0" width="30" height="30" style="fill:rgb(0%,0%,0%);fill-opacity:0.501961;stroke:none;"/>
  </g>
</mask>
<linearGradient id="linear3" gradientUnits="userSpaceOnUse" x1="272" y1="732.36218" x2="272" y2="716.36218" gradientTransform="matrix(-0.0585938,0,0,-0.0585938,32.109375,66.114974)">
<stop offset="0" style="stop-color:rgb(0%,0%,0%);stop-opacity:1;"/>
<stop offset="1" style="stop-color:rgb(0%,0%,0%);stop-opacity:0;"/>
</linearGradient>
<clipPath id="clip4">
  <rect x="0" y="0" width="30" height="30"/>
</clipPath>
<g id="surface14" clip-path="url(#clip4)">
<path style=" stroke:none;fill-rule:nonzero;fill:url(#linear3);" d="M 16.171875 24.140625 C 16.054688 23.460938 16.261719 22.320312 15.703125 22.265625 C 15.152344 22.3125 15.359375 23.46875 15.234375 24.140625 "/>
</g>
<mask id="mask4">
  <g filter="url(#alpha)">
<rect x="0" y="0" width="30" height="30" style="fill:rgb(0%,0%,0%);fill-opacity:0.501961;stroke:none;"/>
  </g>
</mask>
<linearGradient id="linear4" gradientUnits="userSpaceOnUse" x1="272" y1="732.36218" x2="272" y2="716.36218" gradientTransform="matrix(0.0585938,0,0,0.0585938,-0.703125,-36.114971)">
<stop offset="0" style="stop-color:rgb(0%,0%,0%);stop-opacity:1;"/>
<stop offset="1" style="stop-color:rgb(0%,0%,0%);stop-opacity:0;"/>
</linearGradient>
<clipPath id="clip5">
  <rect x="0" y="0" width="30" height="30"/>
</clipPath>
<g id="surface17" clip-path="url(#clip5)">
<path style=" stroke:none;fill-rule:nonzero;fill:url(#linear4);" d="M 15.234375 5.859375 C 15.351562 6.539062 15.144531 7.679688 15.703125 7.734375 C 16.253906 7.6875 16.046875 6.53125 16.171875 5.859375 "/>
</g>
<mask id="mask5">
  <g filter="url(#alpha)">
<rect x="0" y="0" width="30" height="30" style="fill:rgb(0%,0%,0%);fill-opacity:0.501961;stroke:none;"/>
  </g>
</mask>
<linearGradient id="linear5" gradientUnits="userSpaceOnUse" x1="272" y1="732.36218" x2="272" y2="716.36218" gradientTransform="matrix(0,0.0585938,-0.0585938,0,66.114971,-0.703125)">
<stop offset="0" style="stop-color:rgb(0%,0%,0%);stop-opacity:1;"/>
<stop offset="1" style="stop-color:rgb(0%,0%,0%);stop-opacity:0;"/>
</linearGradient>
<clipPath id="clip6">
  <rect x="0" y="0" width="30" height="30"/>
</clipPath>
<g id="surface20" clip-path="url(#clip6)">
<path style=" stroke:none;fill-rule:nonzero;fill:url(#linear5);" d="M 24.140625 15.234375 C 23.460938 15.351562 22.320312 15.144531 22.265625 15.703125 C 22.3125 16.253906 23.46875 16.046875 24.140625 16.171875 "/>
</g>
<mask id="mask6">
  <g filter="url(#alpha)">
<rect x="0" y="0" width="30" height="30" style="fill:rgb(0%,0%,0%);fill-opacity:0.501961;stroke:none;"/>
  </g>
</mask>
<linearGradient id="linear6" gradientUnits="userSpaceOnUse" x1="272" y1="732.36218" x2="272" y2="716.36218" gradientTransform="matrix(0,-0.0585938,0.0585938,0,-36.114971,32.109375)">
<stop offset="0" style="stop-color:rgb(0%,0%,0%);stop-opacity:1;"/>
<stop offset="1" style="stop-color:rgb(0%,0%,0%);stop-opacity:0;"/>
</linearGradient>
<clipPath id="clip7">
  <rect x="0" y="0" width="30" height="30"/>
</clipPath>
<g id="surface23" clip-path="url(#clip7)">
<path style=" stroke:none;fill-rule:nonzero;fill:url(#linear6);" d="M 5.859375 16.171875 C 6.539062 16.054688 7.679688 16.261719 7.734375 15.703125 C 7.6875 15.152344 6.53125 15.359375 5.859375 15.234375 "/>
</g>
<mask id="mask7">
  <g filter="url(#alpha)">
<rect x="0" y="0" width="30" height="30" style="fill:rgb(0%,0%,0%);fill-opacity:0.501961;stroke:none;"/>
  </g>
</mask>
<linearGradient id="linear7" gradientUnits="userSpaceOnUse" x1="272" y1="732.36218" x2="272" y2="716.36218" gradientTransform="matrix(-0.0585938,0,0,-0.0585938,30.703125,66.114971)">
<stop offset="0" style="stop-color:rgb(0%,0%,0%);stop-opacity:1;"/>
<stop offset="1" style="stop-color:rgb(0%,0%,0%);stop-opacity:0;"/>
</linearGradient>
<clipPath id="clip8">
  <rect x="0" y="0" width="30" height="30"/>
</clipPath>
<g id="surface26" clip-path="url(#clip8)">
<path style=" stroke:none;fill-rule:nonzero;fill:url(#linear7);" d="M 14.765625 24.140625 C 14.648438 23.460938 14.855469 22.320312 14.296875 22.265625 C 13.746094 22.3125 13.953125 23.46875 13.828125 24.140625 "/>
</g>
</defs>
<g id="surface1">
<path style="fill-rule:nonzero;fill:url(#radial0);stroke-width:1;stroke-linecap:butt;stroke-linejoin:miter;stroke:rgb(0%,0%,0%);stroke-opacity:1;stroke-miterlimit:4;" d="M 480 256 C 480 379.733333 379.733333 480 256 480 C 132.266667 480 32 379.733333 32 256 C 32 132.266667 132.266667 32 256 32 C 379.733333 32 480 132.266667 480 256 Z M 480 256 " transform="matrix(0.0585938,0,0,0.0585938,0,0)"/>
<path style="fill-rule:nonzero;fill:url(#radial1);stroke-width:1;stroke-linecap:butt;stroke-linejoin:miter;stroke:rgb(0%,0%,0%);stroke-opacity:1;stroke-miterlimit:4;" d="M 344 254.000007 C 344 301.495462 304.6 340.000008 256 340.000008 C 207.4 340.000008 168 301.495462 168 254.000007 C 168 206.504551 207.4 168.000005 256 168.000005 C 304.6 168.000005 344 206.504551 344 254.000007 Z M 344 254.000007 " transform="matrix(0.0585938,0,0,0.0599564,0,-0.228925)"/>
<path style="fill-rule:nonzero;fill:rgb(29.411765%,29.411765%,29.411765%);fill-opacity:1;stroke-width:1;stroke-linecap:butt;stroke-linejoin:miter;stroke:rgb(0%,0%,0%);stroke-opacity:1;stroke-miterlimit:4;" d="M 242.989237 168.035917 L 246.901895 221.163206 C 234.315394 224.415897 224.415899 234.315392 221.163208 246.901893 L 168.035918 242.989235 L 168.035918 270.990664 L 221.681753 267.030866 C 225.358708 278.344575 234.456815 287.25412 245.959086 290.553952 L 241.999288 344.011224 L 270.000716 344.011224 L 266.040918 290.553952 C 277.826031 287.159839 287.159841 277.82603 290.553953 266.040917 L 344.011226 270.000715 L 344.011226 241.999286 L 290.553953 245.959084 C 287.206981 234.503954 278.344576 225.358706 267.030868 221.681751 L 270.990666 168.035917 Z M 242.989237 168.035917 " transform="matrix(0.041432,0.041432,-0.041432,0.041432,15,-6.213203)"/>
<use xlink:href="#surface5" mask="url(#mask0)"/>
<use xlink:href="#surface8" mask="url(#mask1)"/>
<use xlink:href="#surface11" mask="url(#mask2)"/>
<use xlink:href="#surface14" mask="url(#mask3)"/>
<use xlink:href="#surface17" mask="url(#mask4)"/>
<use xlink:href="#surface20" mask="url(#mask5)"/>
<use xlink:href="#surface23" mask="url(#mask6)"/>
<use xlink:href="#surface26" mask="url(#mask7)"/>
<path style="fill-rule:nonzero;fill:rgb(29.411765%,29.411765%,29.411765%);fill-opacity:1;stroke-width:1;stroke-linecap:butt;stroke-linejoin:miter;stroke:rgb(0%,0%,0%);stroke-opacity:1;stroke-miterlimit:4;" d="M 192 79.2 C 139.666667 98.133333 98.133333 139.666667 79.133333 192 L 169 192 C 175.466667 183.2 183.2 175.466667 192 169 Z M 320 79.2 L 320 169 C 328.8 175.466667 336.533333 183.2 343 192 L 432.866667 192 C 413.866667 139.666667 372.333333 98.133333 320 79.2 Z M 79.133333 320 C 98.133333 372.333333 139.666667 413.866667 192 432.8 L 192 343 C 183.2 336.533333 175.466667 328.8 169 320 Z M 343 320 C 336.533333 328.8 328.8 336.533333 320 343 L 320 432.866667 C 372.333333 413.866667 413.866667 372.333333 432.8 320 Z M 343 320 " transform="matrix(0.0585938,0,0,0.0585938,0,0)"/>
</g>
</svg>
